<svg width="1024" height="1024" viewBox="0 0 1024 1024" fill="none" xmlns="http://www.w3.org/2000/svg">
<path d="M630.644 0.601843C634.009 3.96751 633.09 10.2261 633.333 14.8262C633.406 16.1815 633.479 17.5369 633.554 18.9333C634.57 40.4891 634.275 62.0828 634.202 83.6559C634.194 88.1704 634.186 92.6848 634.179 97.1993C634.16 108.145 634.131 119.091 634.095 130.037C637.282 130.502 637.282 130.502 640.534 130.976C656.537 133.367 672.174 136.001 687.689 140.715C690.294 141.497 690.294 141.497 692.952 142.294C737.538 156.093 787.059 182.01 810.277 224.531C816.009 235.535 820.938 246.798 825.609 258.285C835.007 280.617 850.998 296.374 869.04 311.933C882.19 323.457 882.19 323.457 882.957 330.614C883.808 363.174 871.906 394.718 850.465 419.175C823.812 446.442 795.371 454.16 758.551 456.673C749.363 457.331 741.183 458.454 732.44 461.39C733.505 462.415 734.571 463.441 735.668 464.498C744.87 473.506 753.281 482.677 761.306 492.758C763.912 496.001 766.577 499.198 769.299 502.344C807.083 546.045 831.712 598.135 842.863 654.679C843.5 657.843 843.5 657.843 844.15 661.07C856.936 738.335 833.881 818.149 788.939 881.022C785.129 886.171 781.246 891.246 777.299 896.291C776.595 897.194 775.89 898.098 775.164 899.029C765.943 910.793 765.943 910.793 761.771 915.275C760.632 915.275 759.494 915.275 758.32 915.275C758.32 916.414 758.32 917.553 758.32 918.726C755.543 921.782 752.717 924.55 749.694 927.355C748.497 928.481 747.3 929.607 746.068 930.766C684.441 987.59 607.868 1021.77 523.672 1024C524.241 1022.29 524.81 1020.58 525.397 1018.82C528.216 1017.54 531.047 1016.28 533.929 1015.15C564.591 1002.15 593.317 977.511 616.187 953.714C620.292 949.791 620.292 949.791 625.468 948.065C625.468 946.926 625.468 945.787 625.468 944.613C626.607 944.613 627.745 944.613 628.919 944.613C629.352 943.623 629.786 942.633 630.233 941.613C632.653 937.191 635.467 934.132 638.947 930.483C695.51 868.53 729.282 787.019 725.822 702.643C723.415 661.68 712.223 621.537 696.207 583.922C695.632 582.564 695.057 581.207 694.464 579.808C670.627 524.543 633.244 473.501 592.868 429.153C589.703 425.663 586.599 422.134 583.52 418.569C579.149 413.533 574.642 408.646 570.075 403.787C523.506 354.063 491.933 301.458 494.106 231.344C497.732 159.411 523.017 89.0408 573.707 36.8436C575.115 35.3086 576.523 33.7736 577.973 32.192C589.772 19.7128 612.385 -4.08106 630.644 0.601843ZM691.031 238.762C697.493 261.232 707.152 278.41 727.453 291.082C734.603 294.838 741.832 297.267 749.694 299.165C751.575 299.645 751.575 299.645 753.495 300.136C765.489 302.922 777.108 302.963 789.377 302.616C786.668 281.806 774.313 264.8 758.496 251.55C737.897 237.249 714.966 237.903 691.031 238.762Z" fill="#FE8100"/>
<path d="M341.109 116C340.754 117.611 340.399 119.221 340.033 120.881C331.457 161.334 332.605 199.388 355.079 235.536C363.248 247.416 372.717 258.053 382.498 268.622C423.986 313.765 450.988 363.163 448.885 425.699C447.14 454.257 434.674 481.851 415.652 503.118C414.244 504.746 412.837 506.375 411.386 508.053C386.488 536.391 355.819 554.928 323.223 573.249C303.179 584.582 284.122 597.053 266.566 611.995C264.438 613.799 264.438 613.799 262.266 615.64C214.845 656.978 185.274 715.614 176.312 777.551C175.02 786.212 175.02 786.212 171.22 790C141.308 739.137 132.476 677.382 146.517 619.988C153.964 592.977 165.53 568.156 183.355 546.323C184.748 544.597 186.14 542.87 187.574 541.091C208.322 515.744 233.105 495.43 261.907 479.679C282.57 468.006 298.535 451.369 306.221 428.697C311.927 406.763 304.786 386.735 293.653 367.535C288.12 358.89 281.767 351.028 274.95 343.36C267.121 334.362 260.891 325.335 255.515 314.744C254.957 313.659 254.4 312.573 253.826 311.456C238.573 280.027 240.154 243.011 251.249 210.511C258.301 191.751 269.175 176.145 282.168 160.933C283.908 158.725 283.908 158.725 285.683 156.471C295.478 144.502 324.783 116 341.109 116Z" fill="#FE8100"/>
<path d="M503.343 428C504.484 428 505.625 428 506.801 428C540.023 464.902 569.922 517.461 568.978 568.335C566.409 614.372 540.592 652.759 508.53 684.171C502.401 689.655 496.002 694.705 489.511 699.749C487.573 701.318 485.639 702.891 483.709 704.469C471.587 714.349 459.225 723.827 446.61 733.069C430.352 744.981 414.728 757.13 399.995 770.918C396.145 774.177 396.145 774.177 392.403 775.922C388.315 778.134 387.669 780.398 385.771 784.563C383.393 787.037 383.393 787.037 380.584 789.539C348.142 821.408 333.183 866.205 332.172 910.917C332.56 935.209 338.12 960.599 348.381 982.641C351.191 988.807 351.191 988.807 349.462 994C333.972 984.405 321.022 973.718 307.966 961.113C306.702 959.957 305.438 958.802 304.136 957.611C275.297 930.512 256.41 888.071 254.061 848.665C252.753 782.162 272.553 732.217 318.34 684.164C325.84 676.518 334.066 669.921 342.546 663.401C344.886 661.506 344.886 661.506 347.273 659.574C367.412 643.52 389.244 629.811 410.71 615.628C453.144 587.476 489.003 554.444 499.885 502.428C504.546 477.814 503.698 452.949 503.343 428Z" fill="#FE8100"/>
<path d="M638.276 578C661.812 600.074 668.685 648.615 669.93 679.184C671.42 742.759 648.964 795.448 605.972 841.905C585.26 863.257 561.037 879.429 536.354 895.791C524.272 903.826 512.669 912.219 501.514 921.512C499.908 922.838 498.301 924.164 496.645 925.531C468.859 949.873 452.658 978.494 440.924 1013C439.21 1012.43 437.496 1011.86 435.73 1011.27C433.665 1006.88 431.941 1002.67 430.32 998.112C429.863 996.903 429.406 995.695 428.934 994.45C426.737 988.455 425.278 983.19 424.383 976.817C424.129 975.086 423.874 973.355 423.612 971.571C422.47 971.002 421.327 970.432 420.15 969.845C418.753 911.289 426.539 865.522 468.413 820.936C481.579 807.333 496.824 796.558 512.281 785.698C515.566 783.383 515.566 783.383 518.826 779.964C521.478 778.318 524.15 776.705 526.833 775.109C577.536 743.098 615.928 698.378 631.351 640.143C631.657 639.016 631.963 637.888 632.279 636.727C635.274 624.738 635.961 612.63 636.761 600.333C636.985 597.103 636.985 597.103 637.214 593.809C637.579 588.54 637.932 583.27 638.276 578Z" fill="#FE8100"/>
<path d="M341 116C339.86 121.61 338.72 127.22 337.545 133C336.405 131.13 335.265 129.26 334.091 127.333C332.737 127.684 331.383 128.035 329.989 128.396C325.455 129.222 325.455 129.222 322 127.333C324.512 125.434 327.033 123.547 329.557 121.667C331.661 120.089 331.661 120.089 333.808 118.479C337.545 116 337.545 116 341 116Z" fill="#E67700"/>
<path d="M345 984C346.32 984 347.64 984 349 984C350.32 985.65 351.64 987.3 353 989C352.34 990.65 351.68 992.3 351 994C347.7 991.8 344.4 989.6 341 987.333C342.32 986.233 343.64 985.133 345 984Z" fill="#E77A00"/>
<path d="M724 712C724.66 712 725.32 712 726 712C726 716.62 726 721.24 726 726C725.34 726 724.68 726 724 726C724 721.38 724 716.76 724 712Z" fill="#FC8101"/>
<path d="M529.667 900C530.107 901.32 530.547 902.64 531 904C529.68 903.34 528.36 902.68 527 902C527.88 901.34 528.76 900.68 529.667 900Z" fill="#F87E00"/>
<path d="M258 880C260 885 260 885 260 885L258 880Z" fill="#E27300"/>
<path d="M531 1014C533 1015 533 1015 533 1015L531 1014Z" fill="#C96701"/>
<path d="M608 1013C612 1014 612 1014 612 1014L608 1013Z" fill="#D86C00"/>
<path d="M333 985C336 986 336 986 336 986L333 985Z" fill="#C06100"/>
<path d="M550 885C553 886 553 886 553 886L550 885Z" fill="#F98001"/>
<path d="M464 821C468 822 468 822 468 822L464 821Z" fill="#FA7F00"/>
<path d="M409 613C413 614 413 614 413 614L409 613Z" fill="#FB8200"/>
<path d="M426 601C428 602 428 602 428 602L426 601Z" fill="#FE8000"/>
<path d="M815 445C819 448 819 448 819 448L815 445Z" fill="#EB7901"/>
</svg>
