<svg width="1024" height="1024" viewBox="0 0 1024 1024" fill="none" xmlns="http://www.w3.org/2000/svg">
<path d="M630.644 0.601843C634.009 3.96751 633.09 10.2261 633.333 14.8262C633.406 16.1815 633.479 17.5369 633.554 18.9333C634.57 40.4891 634.275 62.0828 634.202 83.6559C634.194 88.1704 634.186 92.6848 634.179 97.1993C634.16 108.145 634.131 119.091 634.095 130.037C637.282 130.502 637.282 130.502 640.534 130.976C656.537 133.367 672.174 136.001 687.689 140.715C690.294 141.497 690.294 141.497 692.952 142.294C737.538 156.093 787.059 182.01 810.277 224.531C816.009 235.535 820.938 246.798 825.609 258.285C835.007 280.617 850.998 296.374 869.04 311.933C882.19 323.457 882.19 323.457 882.957 330.614C883.808 363.174 871.906 394.718 850.465 419.175C823.812 446.442 795.371 454.16 758.551 456.673C749.363 457.331 741.183 458.454 732.44 461.39C733.505 462.415 734.571 463.441 735.668 464.498C744.87 473.506 753.281 482.677 761.306 492.758C763.912 496.001 766.577 499.198 769.299 502.344C807.083 546.045 831.712 598.135 842.863 654.679C843.5 657.843 843.5 657.843 844.15 661.07C856.936 738.335 833.881 818.149 788.939 881.022C785.129 886.171 781.246 891.246 777.299 896.291C776.595 897.194 775.89 898.098 775.164 899.029C765.943 910.793 765.943 910.793 761.771 915.275C760.632 915.275 759.494 915.275 758.32 915.275C758.32 916.414 758.32 917.553 758.32 918.726C755.543 921.782 752.717 924.55 749.694 927.355C748.497 928.481 747.3 929.607 746.068 930.766C684.441 987.59 607.868 1021.77 523.672 1024C524.241 1022.29 524.81 1020.58 525.397 1018.82C528.216 1017.54 531.047 1016.28 533.929 1015.15C564.591 1002.15 593.317 977.511 616.187 953.714C620.292 949.791 620.292 949.791 625.468 948.065C625.468 946.926 625.468 945.787 625.468 944.613C626.607 944.613 627.745 944.613 628.919 944.613C629.352 943.623 629.786 942.633 630.233 941.613C632.653 937.191 635.467 934.132 638.947 930.483C695.51 868.53 729.282 787.019 725.822 702.643C723.415 661.68 712.223 621.537 696.207 583.922C695.632 582.564 695.057 581.207 694.464 579.808C670.627 524.543 633.244 473.501 592.868 429.153C589.703 425.663 586.599 422.134 583.52 418.569C579.149 413.533 574.642 408.646 570.075 403.787C523.506 354.063 491.933 301.458 494.106 231.344C497.732 159.411 523.017 89.0408 573.707 36.8436C575.115 35.3086 576.523 33.7736 577.973 32.192C589.772 19.7128 612.385 -4.08106 630.644 0.601843ZM691.031 238.762C697.493 261.232 707.152 278.41 727.453 291.082C734.603 294.838 741.832 297.267 749.694 299.165C751.575 299.645 751.575 299.645 753.495 300.136C765.489 302.922 777.108 302.963 789.377 302.616C786.668 281.806 774.313 264.8 758.496 251.55C737.897 237.249 714.966 237.903 691.031 238.762Z" fill="url(#paint0_linear_72_5)"/>
<path d="M340.458 117C340.104 118.608 339.75 120.217 339.385 121.874C330.838 162.267 331.981 200.264 354.383 236.359C362.525 248.221 371.964 258.842 381.713 269.396C423.067 314.472 449.982 363.797 447.886 426.239C446.146 454.755 433.72 482.308 414.76 503.544C413.357 505.17 411.954 506.796 410.508 508.471C385.69 536.767 355.12 555.276 322.631 573.571C302.651 584.887 283.655 597.339 266.157 612.259C264.035 614.061 264.035 614.061 261.871 615.899C214.603 657.176 185.127 715.725 176.194 777.569C174.907 786.217 174.907 786.217 171.119 790C141.304 739.212 132.501 677.549 146.496 620.24C153.919 593.27 165.447 568.485 183.215 546.685C184.603 544.961 185.99 543.237 187.42 541.461C208.101 516.151 232.804 495.867 261.513 480.14C282.108 468.484 298.022 451.872 305.683 429.233C311.371 407.331 304.253 387.333 293.156 368.162C287.641 359.53 281.309 351.679 274.513 344.023C266.709 335.038 260.499 326.025 255.141 315.449C254.585 314.365 254.03 313.282 253.457 312.166C238.254 280.784 239.83 243.823 250.889 211.371C257.919 192.639 268.757 177.055 281.708 161.867C283.442 159.661 283.442 159.661 285.211 157.411C294.975 145.459 324.185 117 340.458 117Z" fill="#FE5F25"/>
<path d="M503.343 428C504.484 428 505.625 428 506.801 428C540.023 464.837 569.922 517.303 568.978 568.087C566.409 614.042 540.592 652.362 508.53 683.719C502.401 689.192 496.002 694.234 489.511 699.269C487.573 700.835 485.639 702.405 483.709 703.98C471.587 713.843 459.225 723.304 446.61 732.53C430.352 744.421 414.728 756.548 399.995 770.313C396.145 773.566 396.145 773.566 392.403 775.307C388.315 777.515 387.669 779.776 385.771 783.933C383.393 786.403 383.393 786.403 380.584 788.9C348.142 820.713 333.183 865.431 332.172 910.064C332.56 934.313 338.12 959.658 348.381 981.661C351.191 987.817 351.191 987.817 349.462 993C333.972 983.422 321.022 972.754 307.966 960.171C306.702 959.018 305.438 957.864 304.136 956.675C275.297 929.624 256.41 887.258 254.061 847.921C252.753 781.536 272.553 731.68 318.34 683.712C325.84 676.079 334.066 669.494 342.546 662.985C344.886 661.094 344.886 661.094 347.273 659.165C367.412 643.139 389.244 629.455 410.71 615.296C453.144 587.194 489.003 554.22 499.885 502.297C504.546 477.726 503.698 452.905 503.343 428Z" fill="#FF6C2E"/>
<path d="M637.53 577C660.877 599.074 667.695 647.615 668.931 678.184C670.409 741.759 648.132 794.448 605.484 840.905C584.938 862.257 560.909 878.429 536.423 894.791C524.438 902.826 512.928 911.219 501.862 920.512C500.268 921.838 498.674 923.164 497.032 924.531C469.468 948.873 453.397 977.494 441.756 1012C440.056 1011.43 438.356 1010.86 436.604 1010.27C434.556 1005.88 432.845 1001.67 431.238 997.112C430.784 995.903 430.33 994.695 429.863 993.45C427.683 987.455 426.236 982.19 425.348 975.817C425.096 974.086 424.843 972.355 424.583 970.571C423.45 970.002 422.316 969.432 421.149 968.845C419.763 910.289 427.487 864.522 469.025 819.936C482.087 806.333 497.209 795.558 512.543 784.698C515.802 782.383 515.802 782.383 519.035 778.964C521.666 777.318 524.317 775.705 526.978 774.109C577.275 742.098 615.361 697.378 630.66 639.143C630.964 638.016 631.268 636.888 631.58 635.727C634.552 623.738 635.233 611.63 636.027 599.333C636.249 596.103 636.249 596.103 636.476 592.809C636.838 587.54 637.189 582.27 637.53 577Z" fill="#FE8100"/>
<path d="M340 117C338.92 121.62 337.84 126.24 336.727 131C335.647 129.46 334.567 127.92 333.455 126.333C332.172 126.622 330.89 126.911 329.568 127.208C325.273 127.889 325.273 127.889 322 126.333C324.38 124.769 326.768 123.216 329.159 121.667C331.152 120.367 331.152 120.367 333.186 119.042C336.727 117 336.727 117 340 117Z" fill="#E67700"/>
<path d="M343.667 982C344.877 982 346.087 982 347.333 982C348.543 983.815 349.753 985.63 351 987.5C350.395 989.315 349.79 991.13 349.167 993C346.142 990.58 343.117 988.16 340 985.667C341.21 984.457 342.42 983.247 343.667 982Z" fill="#E77A00"/>
<path d="M724 713C724.66 713 725.32 713 726 713C726 716.96 726 720.92 726 725C725.34 725 724.68 725 724 725C724 721.04 724 717.08 724 713Z" fill="#FC8101"/>
<path d="M529.333 900C529.883 900.66 530.433 901.32 531 902C529.35 901.67 527.7 901.34 526 901C527.1 900.67 528.2 900.34 529.333 900Z" fill="#F87E00"/>
<path d="M258 879C260 885 260 885 260 885L258 879Z" fill="#E27300"/>
<path d="M531 1013C534 1016 534 1016 534 1016L531 1013Z" fill="#C96701"/>
<path d="M609 1012C613 1013 613 1013 613 1013L609 1012Z" fill="#D86C00"/>
<path d="M333 984C336 986 336 986 336 986L333 984Z" fill="#C06100"/>
<path d="M550 885C554 888 554 888 554 888L550 885Z" fill="#F98001"/>
<path d="M464 819C468 821 468 821 468 821L464 819Z" fill="#FA7F00"/>
<path d="M409 612C411 614 411 614 411 614L409 612Z" fill="#FB8200"/>
<path d="M425 601C428 602 428 602 428 602L425 601Z" fill="#FE8000"/>
<path d="M815 445C819 447 819 447 819 447L815 445Z" fill="#EB7901"/>
<defs>
<linearGradient id="paint0_linear_72_5" x1="688.5" y1="0" x2="688.5" y2="1024" gradientUnits="userSpaceOnUse">
<stop stop-color="#EA2866"/>
<stop offset="1" stop-color="#EA2848"/>
</linearGradient>
</defs>
</svg>
